<svg width="36" height="37" viewBox="0 0 36 37" fill="none" xmlns="http://www.w3.org/2000/svg">
<g clip-path="url(#clip0_35_384)">
<path d="M18.6456 3.79984C18.9422 4.32463 21.7107 9.86155 24.289 12.4399C24.6921 12.843 24.3042 13.4286 23.787 13.383C23.0569 13.3221 22.0529 13.17 21.2239 12.9799L20.5698 12.8278C21.1935 17.0717 20.8816 16.0754 21.7335 25.7346C22.3495 32.7242 22.7222 31.8952 19.0259 31.8647C17.3602 31.8571 15.9304 31.8876 15.8315 31.9408C15.5957 32.0701 14.3788 31.9028 14.394 30.0166C14.432 21.1103 13.9604 15.7408 14.5156 13.3146C14.5156 13.2994 10.3706 12.6224 10.3554 12.6224C10.3402 12.6224 8.76582 12.5235 10.8194 10.1049C11.6484 9.1238 16.516 2.55251 16.5616 2.36997C16.843 1.46489 17.6568 2.02011 18.6456 3.79984ZM20.3569 30.5033C20.4938 30.4881 20.509 30.1991 20.4253 29.2028C20.296 27.674 20.4176 27.6893 18.7976 28.9899C18.0827 29.5679 17.3678 30.1155 17.2156 30.222C16.9646 30.3817 19.3529 30.5946 20.3569 30.5033ZM16.1052 28.5792C16.0672 29.7885 16.052 29.7732 16.6453 29.3016C17.4363 28.678 20.159 26.7462 20.1971 26.5865C20.2351 26.442 20.0221 24.4645 20.0069 24.2668C17.3982 26.6625 17.3754 26.6396 16.1509 27.5904L16.1052 28.5792ZM16.0139 25.3848C16.0368 26.0161 16.0749 26.556 16.0977 26.5788C16.227 26.7233 19.8549 23.2627 19.8625 23.2551L19.794 22.1676C19.7027 20.8138 19.7179 20.8138 18.9725 21.5591C18.25 22.2817 16.7746 23.5441 15.9684 24.2286L16.0139 25.3848ZM15.9836 22.9661C17.5808 21.521 17.71 21.4222 19.619 19.5436C19.5734 18.9808 19.4821 17.6574 19.4137 17.589C19.33 17.5053 16.7213 20.2358 16.2345 20.4943C15.8314 20.7149 15.8923 20.6388 15.9836 22.9661ZM15.8315 17.8399C15.8239 19.5968 15.55 19.3231 18.752 16.7752C19.4365 16.2276 19.4061 16.334 19.2844 14.9802L19.1779 13.8394L15.8314 16.6687L15.8315 17.8399ZM16.0976 14.1208C16.0596 14.4326 16.0749 14.6607 16.1205 14.6455C16.265 14.5619 18.5923 12.7821 18.8281 12.6832C18.8585 12.668 18.8737 12.5616 18.8738 12.4247C18.889 11.9075 19.2692 11.4816 19.7788 11.4131C19.8929 11.4055 20.76 11.8162 22.1138 11.9683C22.3191 11.9911 22.494 11.9835 22.494 11.9531C22.494 11.801 20.6535 9.56493 20.6459 9.55733C19.794 10.2418 18.0752 11.6869 17.5884 12.0976C16.2118 13.2765 16.1661 13.4895 16.0976 14.1208ZM15.1241 12.0521L15.6337 12.227L17.1472 10.9873C19.2387 9.27599 20.0678 8.7512 20.0754 8.66754C20.083 8.6143 19.4137 7.59513 19.2311 7.36697C19.1323 7.23767 18.8128 7.64838 16.4551 9.94529C14.356 11.9987 14.4625 11.8314 15.1241 12.0521ZM13.1011 10.2723C12.2112 11.3447 12.1046 11.5425 11.9373 11.8011C12.6446 11.8847 12.6371 11.9379 12.8653 11.5272C13.3825 10.5993 17.9459 6.8421 18.5923 6.21083C18.0295 5.05477 17.4895 3.8911 17.345 4.03561C17.3298 4.05082 14.683 8.37084 13.1011 10.2723Z" fill="#EAEAEA"/>
</g>
<defs>
<clipPath id="clip0_35_384">
<rect width="25.052" height="25.052" fill="white" transform="matrix(-0.707107 -0.707107 -0.707107 0.707107 35.4287 18.4287)"/>
</clipPath>
</defs>
</svg>
