<svg width="92" height="99" viewBox="0 0 92 99" fill="none" xmlns="http://www.w3.org/2000/svg">
<path d="M33.5 83.5C11 90.25 11 72.25 2 70M65 97V79.585C65.1688 77.4392 64.8789 75.2821 64.1496 73.2571C63.4202 71.232 62.2682 69.3854 60.77 67.84C74.9 66.265 89.75 60.91 89.75 36.34C89.7488 30.0572 87.3321 24.0154 83 19.465C85.0514 13.9683 84.9063 7.89257 82.595 2.49999C82.595 2.49999 77.285 0.924994 65 9.15999C54.686 6.36469 43.814 6.36469 33.5 9.15999C21.215 0.924994 15.905 2.49999 15.905 2.49999C13.5937 7.89257 13.4486 13.9683 15.5 19.465C11.1356 24.0491 8.71635 30.1456 8.75 36.475C8.75 60.865 23.6 66.22 37.73 67.975C36.2495 69.5049 35.1077 71.3293 34.3789 73.3296C33.6501 75.3299 33.3506 77.4613 33.5 79.585V97" stroke="#06D6A0" stroke-width="4" stroke-linecap="round" stroke-linejoin="round"/>
</svg>
