<svg width="94" height="94" viewBox="0 0 94 94" fill="none" xmlns="http://www.w3.org/2000/svg">
<path d="M65.0001 29V51.5C65.0001 55.0804 66.4224 58.5142 68.9541 61.046C71.4858 63.5777 74.9196 65 78.5001 65C82.0805 65 85.5143 63.5777 88.046 61.046C90.5777 58.5142 92.0001 55.0804 92.0001 51.5V47C91.9994 36.8436 88.5631 26.9862 82.2498 19.0304C75.9365 11.0746 67.1175 5.48853 57.2269 3.18035C47.3363 0.872179 36.9557 1.9777 27.7731 6.31717C18.5905 10.6566 11.1458 17.9748 6.6497 27.0818C2.15357 36.1887 0.87039 46.5488 3.0088 56.4775C5.1472 66.4062 10.5814 75.3196 18.4279 81.7682C26.2743 88.2169 36.0715 91.8216 46.2264 91.9962C56.3812 92.1708 66.2965 88.9051 74.3601 82.73M65.0001 47C65.0001 56.9411 56.9412 65 47.0001 65C37.0589 65 29.0001 56.9411 29.0001 47C29.0001 37.0589 37.0589 29 47.0001 29C56.9412 29 65.0001 37.0589 65.0001 47Z" stroke="#06D6A0" stroke-width="4" stroke-linecap="round" stroke-linejoin="round"/>
</svg>
