<svg width="94" height="94" viewBox="0 0 94 94" fill="none" xmlns="http://www.w3.org/2000/svg">
<path d="M71.75 22.25H71.795M24.5 2H69.5C81.9264 2 92 12.0736 92 24.5V69.5C92 81.9264 81.9264 92 69.5 92H24.5C12.0736 92 2 81.9264 2 69.5V24.5C2 12.0736 12.0736 2 24.5 2ZM65 44.165C65.5554 47.9101 64.9157 51.735 63.1719 55.0956C61.4282 58.4562 58.6692 61.1814 55.2873 62.8835C51.9055 64.5857 48.073 65.1782 44.335 64.5767C40.5971 63.9752 37.1439 62.2104 34.4668 59.5332C31.7896 56.8561 30.0248 53.4029 29.4233 49.665C28.8218 45.927 29.4143 42.0945 31.1165 38.7127C32.8186 35.3308 35.5438 32.5718 38.9044 30.8281C42.265 29.0843 46.0899 28.4446 49.835 29C53.6552 29.5665 57.1918 31.3466 59.9226 34.0774C62.6534 36.8082 64.4335 40.3448 65 44.165Z" stroke="#06D6A0" stroke-width="4" stroke-linecap="round" stroke-linejoin="round"/>
</svg>
