<svg width="87" height="87" viewBox="0 0 87 87" fill="none" xmlns="http://www.w3.org/2000/svg">
<path d="M84.7494 63.795V76.17C84.7541 77.3188 84.5188 78.4559 84.0585 79.5085C83.5983 80.5611 82.9233 81.506 82.0767 82.2827C81.2302 83.0593 80.2308 83.6506 79.1425 84.0186C78.0542 84.3867 76.9011 84.5234 75.7569 84.42C63.0636 83.0407 50.8708 78.7033 40.1582 71.7562C30.1915 65.423 21.7414 56.9729 15.4082 47.0062C8.43683 36.2449 4.09842 23.9928 2.74442 11.2425C2.64134 10.1018 2.7769 8.95211 3.14248 7.86667C3.50806 6.78124 4.09565 5.78382 4.86783 4.93791C5.64001 4.092 6.57986 3.41615 7.62756 2.95338C8.67525 2.4906 9.80782 2.25105 10.9532 2.24997H23.3282C25.3301 2.23027 27.2708 2.93917 28.7887 4.24454C30.3066 5.54992 31.298 7.36269 31.5782 9.34497C32.1005 13.3052 33.0692 17.1937 34.4657 20.9362C35.0207 22.4127 35.1408 24.0172 34.8118 25.5599C34.4828 27.1025 33.7185 28.5184 32.6094 29.64L27.3707 34.8787C33.2428 45.2058 41.7935 53.7566 52.1207 59.6287L57.3594 54.39C58.481 53.2809 59.8969 52.5166 61.4395 52.1876C62.9821 51.8586 64.5867 51.9787 66.0632 52.5337C69.8057 53.9302 73.6941 54.8989 77.6544 55.4212C79.6582 55.7039 81.4882 56.7132 82.7964 58.2571C84.1045 59.8011 84.7996 61.772 84.7494 63.795Z" stroke="#06D6A0" stroke-width="4" stroke-linecap="round" stroke-linejoin="round"/>
</svg>
